<svg width="640" height="640" viewBox="0 0 640 640" fill="none" xmlns="http://www.w3.org/2000/svg">
    <path d="M0 50C0 22.3858 22.3858 0 50 0H590C617.614 0 640 22.3858 640 50V590C640 617.614 617.614 640 590 640H50C22.3858 640 0 617.614 0 590V50Z" fill="#1C1C1C"/>
    <path d="M180.86 229.7V289.34H277.04V344.78H180.86V409.46H289.64V467H109.04V172.16H289.64V229.7H180.86Z" fill="white"/>
    <path d="M474.867 467L429.927 401.9L392.127 467H314.427L391.707 347.3L312.327 232.64H392.967L437.907 297.32L475.707 232.64H553.407L474.867 350.66L555.507 467H474.867Z" fill="white"/>
</svg>
